<?xml version="1.0" standalone="no"?>
<!DOCTYPE svg PUBLIC "-//W3C//DTD SVG 20010904//EN"
 "http://www.w3.org/TR/2001/REC-SVG-20010904/DTD/svg10.dtd">
<svg version="1.0" xmlns="http://www.w3.org/2000/svg"
 width="16.000000pt" height="16.000000pt" viewBox="0 0 16.000000 16.000000"
 preserveAspectRatio="xMidYMid meet">
<metadata>
Created by potrace 1.11, written by Peter Selinger 2001-2013
</metadata>
<g transform="translate(0.000000,16.000000) scale(0.012500,-0.012500)"
fill="#000000" stroke="none">
<path d="M568 1194 c-68 -16 -166 -64 -227 -110 -24 -19 -42 -34 -39 -34 2 0
44 14 93 30 49 17 91 30 93 30 3 0 -16 -16 -41 -35 -25 -19 -55 -51 -68 -72
-13 -21 -71 -88 -129 -148 -128 -133 -240 -272 -240 -299 0 -10 16 -39 36 -63
74 -90 451 -423 479 -423 8 0 22 15 31 32 9 18 43 76 76 129 l59 96 82 7 c45
3 97 10 116 16 19 5 36 8 38 6 2 -1 -11 -20 -28 -42 -38 -47 -85 -143 -98
-202 l-9 -42 48 0 c38 0 51 5 64 23 l17 22 -6 -22 c-6 -22 -4 -23 68 -23 l74
0 51 128 c86 218 116 335 134 537 20 216 17 271 -17 340 -26 52 -34 60 -61 63
-26 3 -37 -3 -61 -32 l-29 -36 -38 26 c-140 95 -323 134 -468 98z m621 -91
c59 -74 68 -253 17 -334 -128 -205 -190 -270 -328 -344 l-63 -34 65 -3 65 -3
-79 -19 c-90 -21 -190 -18 -268 9 -54 19 -62 35 -18 35 17 0 30 5 30 10 0 12
-7 12 -48 1 -42 -13 -57 -7 -82 34 -26 43 -25 51 8 63 15 6 20 11 10 11 -82 4
-53 -101 42 -149 20 -10 58 -24 84 -31 25 -6 46 -14 46 -17 0 -10 -80 -141
-89 -146 -18 -11 -325 335 -309 349 1 1 32 17 68 35 35 18 81 43 102 56 35 22
43 22 39 1 -1 -4 6 -10 14 -13 10 -4 13 -13 10 -25 -4 -10 0 -28 8 -39 15 -21
15 -21 36 6 12 15 24 44 27 65 6 35 8 37 30 29 29 -11 31 3 10 55 -18 42 -31
46 -23 6 6 -29 6 -29 -28 -18 -19 6 -35 14 -35 18 0 5 17 17 38 28 20 10 59
39 86 62 33 29 47 37 42 24 -4 -11 -10 -46 -13 -77 -3 -32 -12 -63 -19 -69
-21 -17 -17 -39 6 -39 17 0 20 -7 21 -42 l2 -43 6 35 7 35 6 -31 c4 -17 21
-46 38 -63 26 -25 40 -31 75 -31 26 0 47 6 55 15 9 10 9 15 1 15 -6 0 -11 7
-11 16 0 12 7 15 24 12 26 -5 42 18 48 72 2 20 9 26 33 28 48 4 75 12 75 21 0
5 -16 5 -37 0 -21 -5 -102 -9 -181 -9 l-142 0 15 24 c12 18 13 25 4 28 -7 2
19 36 57 74 48 49 92 81 143 107 41 20 79 37 86 37 7 0 19 7 26 17 13 15 11
16 -16 9 -64 -15 -176 -80 -234 -135 -67 -63 -73 -58 -41 35 l21 59 -67 -65
c-70 -68 -75 -61 -21 29 52 88 134 171 202 203 33 15 67 28 75 28 14 0 120
-56 120 -64 0 -2 -7 -20 -15 -40 -21 -49 -12 -45 19 8 27 46 81 106 96 106 5
0 18 -12 29 -27z m-747 -170 c40 -44 60 -92 66 -160 5 -63 5 -63 -34 -98 -33
-31 -190 -114 -288 -154 -43 -17 -25 -23 21 -7 l39 14 75 -96 c41 -53 111
-135 157 -183 l83 -87 -18 -36 c-9 -20 -19 -36 -22 -36 -3 0 -60 46 -126 102
-155 132 -365 338 -365 359 0 50 333 409 380 409 3 0 18 -12 32 -27z m118
-293 c0 -5 -2 -10 -4 -10 -3 0 -8 5 -11 10 -3 6 -1 10 4 10 6 0 11 -4 11 -10z
m355 0 c-3 -5 -15 -10 -25 -10 -10 0 -22 5 -25 10 -4 6 7 10 25 10 18 0 29 -4
25 -10z m-75 -31 c0 -24 -23 -21 -28 4 -2 10 3 17 12 17 10 0 16 -9 16 -21z"/>
<path d="M1168 934 c-4 -33 -10 -69 -13 -80 -3 -10 2 -4 10 15 10 19 15 53 13
80 l-3 46 -7 -61z"/>
<path d="M1000 630 c0 -13 10 -24 26 -31 37 -13 42 -4 7 15 l-28 15 27 1 c15
0 30 5 33 10 4 6 -8 10 -29 10 -29 0 -36 -4 -36 -20z"/>
<path d="M391 815 c0 -22 6 -53 14 -70 14 -30 14 -30 8 15 -3 25 -10 56 -14
70 -6 21 -7 19 -8 -15z"/>
</g>
</svg>
