<?xml version="1.0" standalone="no"?>
<!DOCTYPE svg PUBLIC "-//W3C//DTD SVG 20010904//EN"
 "http://www.w3.org/TR/2001/REC-SVG-20010904/DTD/svg10.dtd">
<svg version="1.0" xmlns="http://www.w3.org/2000/svg"
 width="804.000000pt" height="804.000000pt" viewBox="0 0 804.000000 804.000000"
 preserveAspectRatio="xMidYMid meet">
<metadata>
Created by potrace 1.11, written by Peter Selinger 2001-2013
</metadata>
<g transform="translate(0.000000,804.000000) scale(0.100000,-0.100000)"
fill="#000000" stroke="none">
<path d="M4198 7735 c-2 -1 -68 -5 -148 -9 -80 -3 -163 -7 -185 -10 -86 -9
-151 -17 -175 -21 -14 -3 -38 -7 -55 -10 -16 -3 -41 -7 -55 -10 -14 -3 -38 -8
-55 -10 -54 -10 -250 -57 -260 -63 -5 -4 -15 -7 -20 -8 -21 -3 -260 -86 -270
-94 -5 -4 -20 -11 -33 -15 -12 -3 -53 -21 -90 -38 -37 -17 -69 -31 -72 -32
-14 -3 -220 -114 -240 -129 -8 -7 -32 -21 -53 -31 -20 -11 -37 -23 -37 -27 0
-3 -8 -9 -18 -13 -16 -4 -159 -105 -212 -148 -8 -7 -42 -34 -75 -61 -95 -76
-297 -276 -279 -276 5 0 46 15 91 34 45 19 84 32 87 29 3 -4 6 -2 6 4 0 10 37
25 51 20 4 -1 17 7 30 18 12 11 19 15 16 8 -4 -6 9 -4 30 6 21 10 79 31 128
47 50 16 93 33 96 37 3 5 10 8 15 8 20 -2 75 12 80 20 3 5 10 7 15 3 5 -3 16
0 24 6 8 7 15 10 15 7 0 -3 21 2 48 10 26 8 54 16 62 19 30 8 136 35 155 39
57 13 72 16 95 21 14 2 34 6 46 9 12 3 39 7 60 10 21 4 48 9 59 12 11 3 18 3
15 0 -17 -17 -102 -77 -109 -77 -5 0 -11 -4 -13 -8 -1 -4 -32 -30 -68 -57
-219 -167 -532 -464 -618 -587 -8 -10 -24 -30 -37 -44 -46 -49 -154 -219 -208
-327 -31 -60 -68 -123 -84 -140 -15 -18 -51 -59 -78 -92 -28 -32 -57 -66 -65
-75 -8 -8 -31 -35 -50 -59 -19 -24 -42 -51 -51 -60 -9 -9 -64 -74 -124 -146
-59 -71 -112 -131 -116 -133 -5 -2 -9 -8 -9 -12 0 -5 -10 -19 -22 -32 -13 -13
-32 -36 -43 -52 -11 -16 -27 -36 -36 -45 -10 -9 -78 -90 -153 -181 -75 -91
-141 -172 -148 -180 -23 -26 -212 -256 -248 -301 -19 -24 -49 -59 -66 -79 -17
-19 -57 -69 -90 -110 -32 -41 -64 -79 -70 -85 -6 -5 -60 -71 -120 -145 -60
-74 -116 -144 -125 -155 -10 -11 -41 -50 -71 -86 -29 -37 -63 -79 -76 -95 -78
-96 -108 -270 -66 -374 25 -62 193 -319 281 -430 6 -8 50 -64 98 -125 122
-156 130 -165 167 -209 309 -367 545 -623 919 -996 184 -183 449 -440 540
-522 20 -18 187 -171 233 -213 6 -6 54 -48 106 -95 89 -79 148 -132 174 -155
6 -5 58 -50 116 -100 58 -49 107 -92 110 -95 11 -11 88 -77 134 -115 27 -22
60 -50 75 -63 14 -13 42 -35 60 -50 19 -15 46 -38 60 -51 15 -13 42 -35 60
-50 19 -14 51 -41 70 -58 l36 -33 1795 1 c987 0 1788 3 1780 6 -8 2 -24 8 -35
13 -24 10 -97 34 -107 35 -3 0 -10 3 -14 8 -4 4 -18 7 -31 7 -21 0 -22 3 -13
20 6 11 8 20 4 20 -3 0 -2 6 4 13 6 6 19 35 30 62 11 28 31 73 43 100 13 28
24 52 24 55 0 3 15 35 33 73 17 37 32 69 32 72 0 3 16 35 34 72 73 147 121
248 121 255 0 3 3 10 8 14 19 20 84 173 129 309 11 33 26 74 33 90 17 41 151
452 180 555 7 25 31 108 53 185 39 136 119 444 128 495 3 14 11 50 19 80 8 30
16 67 19 82 4 24 23 117 41 208 9 41 46 253 51 285 2 17 6 48 9 70 3 22 7 51
10 65 2 14 7 52 10 85 4 33 8 74 10 90 22 177 32 457 20 580 -9 97 -22 198
-31 239 -3 11 -9 44 -14 71 -13 65 -44 161 -74 230 l-25 54 60 107 c32 58 59
108 59 110 0 2 13 32 29 66 16 35 41 101 56 148 15 47 29 92 32 100 4 8 7 20
8 25 2 6 7 28 13 50 12 42 14 55 31 145 43 232 48 502 15 780 -3 25 -17 101
-30 170 -98 495 -307 901 -513 997 -55 26 -127 37 -147 21 -7 -5 -16 -8 -20
-7 -16 4 -64 -13 -64 -22 0 -5 -9 -9 -20 -9 -11 0 -20 -4 -20 -8 0 -5 -10 -14
-22 -19 -37 -18 -124 -100 -191 -182 -74 -90 -157 -206 -157 -219 0 -6 -3 -12
-7 -14 -10 -4 -42 -57 -50 -80 -3 -10 -9 -18 -14 -18 -5 0 -9 -6 -9 -13 0 -7
-5 -18 -11 -24 -7 -7 -29 8 -72 49 -56 54 -110 103 -227 206 -21 17 -43 32
-49 32 -6 0 -11 4 -11 8 0 8 -170 132 -265 194 -109 70 -275 164 -284 159 -2
-2 -7 1 -10 6 -7 10 -116 65 -128 65 -4 0 -14 5 -21 11 -8 6 -23 13 -35 14
-12 2 -24 7 -27 11 -5 7 -15 11 -140 58 -201 77 -428 137 -650 173 -149 24
-202 29 -380 36 -74 4 -143 8 -152 9 -9 2 -18 3 -20 1z m-1266 -3747 c-4 -35
-6 -130 -6 -213 1 -136 6 -179 39 -325 8 -35 57 -156 76 -187 18 -28 18 -33 5
-34 -18 -2 -16 -1 -76 -18 -138 -40 -228 -139 -232 -257 -8 -212 200 -517 485
-714 29 -19 54 -37 57 -40 29 -29 305 -159 319 -151 2 2 7 -1 10 -6 6 -9 146
-57 199 -68 12 -3 32 -8 45 -11 12 -3 31 -7 42 -10 11 -2 43 -8 70 -14 52 -11
99 -19 150 -25 17 -2 30 -5 30 -6 0 -1 11 -3 25 -4 14 -1 59 -5 100 -9 41 -4
90 -8 107 -8 l33 -1 -4 -51 c-2 -28 -5 -51 -6 -51 -1 0 -3 -8 -5 -17 -2 -9 -9
-34 -16 -55 -7 -21 -12 -40 -12 -43 0 -3 -11 -22 -23 -42 -13 -21 -24 -42 -24
-48 0 -5 -4 -10 -9 -10 -5 0 -14 -13 -21 -30 -7 -16 -17 -30 -22 -30 -5 0 -6
-4 -3 -10 3 -5 2 -10 -3 -10 -5 0 -24 -21 -43 -47 -35 -50 -38 -54 -67 -90
-10 -12 -27 -34 -38 -48 -10 -15 -40 -55 -65 -88 -76 -102 -209 -297 -209
-307 0 -4 -3 -10 -7 -12 -12 -5 -53 -66 -53 -78 0 -25 -16 -11 -224 200 -173
175 -205 209 -301 315 -44 49 -101 111 -126 139 -25 28 -61 69 -80 91 -19 22
-43 49 -54 61 -26 28 -68 78 -206 244 -61 74 -122 148 -136 163 -13 15 -74 92
-135 170 -61 78 -114 144 -117 147 -12 10 -240 319 -321 435 -47 66 -87 122
-90 125 -5 5 -63 93 -142 215 -25 39 -58 93 -73 120 -57 102 -56 97 -37 111 9
8 21 14 25 14 7 0 414 224 487 269 19 11 42 24 50 28 8 4 42 23 75 43 33 20
67 39 75 43 8 4 33 18 55 32 22 14 56 34 75 45 19 11 42 25 50 30 19 12 173
106 220 134 19 11 37 23 40 26 4 6 41 29 47 30 1 0 -1 -28 -5 -62z"/>
<path d="M7945 71 l-90 -66 89 -3 c49 -2 90 -1 93 1 2 3 3 34 1 69 l-3 65 -90
-66z"/>
</g>
</svg>
